# Blender v2.83.0 OBJ File: 'Hook.blend'
# www.blender.org
mtllib Hook.mtl
o Cube
v 1.000000 1.000000 -2.989575
v 1.000000 -1.000000 -2.989575
v 1.000000 1.000000 3.009629
v 1.000000 -1.000000 3.009629
v -1.000000 1.000000 -2.989575
v -1.000000 -1.000000 -2.989575
v -1.000000 1.000000 3.009629
v -1.000000 -1.000000 3.009629
v -1.000000 -1.000000 2.070796
v 1.000000 1.000000 2.070796
v -1.000000 1.000000 2.070796
v 1.000000 -1.000000 2.070796
v 1.000000 -0.016393 -2.989575
v -1.000000 -0.016393 3.009629
v 1.000000 -0.016393 3.009629
v -1.000000 -0.016393 -2.989575
v 1.000000 -0.016393 2.070796
v -1.000000 -0.016393 2.070796
v 1.000000 -1.000000 -0.459389
v -1.000000 -1.000000 -0.459389
v 1.000000 -0.016393 -0.459389
v -1.000000 -0.016393 -0.459389
v -1.000000 1.000000 -2.000208
v 1.000000 -1.000000 -2.000208
v -1.000000 -0.016393 -2.000208
v -1.000000 -1.000000 -2.000208
v 1.000000 1.000000 -2.000208
v 1.000000 -0.016393 -2.000208
v -1.000000 0.875472 -2.000208
v 1.000000 0.875472 -2.000208
v 1.000000 -0.023708 -0.459389
v 1.000000 -0.023708 2.070796
v -1.000000 -0.023708 2.070796
v -1.000000 -0.023708 -0.459389
v 1.000000 -0.023708 -2.000208
v -1.000000 -0.023708 -2.000208
vt 0.625000 0.710877
vt 0.875000 0.710877
vt 0.875000 0.750000
vt 0.625000 0.750000
vt 0.497951 0.750000
vt 0.625000 1.000000
vt 0.497951 1.000000
vt 0.497951 0.208771
vt 0.625000 0.208771
vt 0.625000 0.250000
vt 0.497951 0.250000
vt 0.125000 0.710877
vt 0.375000 0.710877
vt 0.375000 0.750000
vt 0.125000 0.750000
vt 0.497951 0.710877
vt 0.625000 0.500000
vt 0.497951 0.500000
vt 0.125000 0.605438
vt 0.375000 0.605438
vt 0.497951 0.000000
vt 0.625000 0.000000
vt 0.625000 0.039123
vt 0.497951 0.039123
vt 0.625000 0.710877
vt 0.875000 0.710877
vt 0.375000 0.000000
vt 0.375000 0.039123
vt 0.497951 0.605438
vt 0.375000 0.250000
vt 0.375000 0.500000
vt 0.375000 0.208771
vt 0.375000 1.000000
vt 0.497951 0.144562
vt 0.375000 0.144562
vt 0.375000 0.541229
vt 0.497951 0.541229
vt 0.625000 0.541229
vt 0.875000 0.541229
vt 0.875000 0.541229
vt 0.625000 0.541229
vt 0.125000 0.541229
vt 0.125000 0.500000
vt 0.875000 0.500000
vt 0.875000 0.541229
vt 0.625000 0.541229
vt 0.625000 0.605438
vt 0.875000 0.605438
vn 0.0000 1.0000 0.0000
vn 0.0000 0.0000 1.0000
vn -1.0000 0.0000 0.0000
vn 0.0000 -1.0000 0.0000
vn 1.0000 0.0000 0.0000
vn 0.0000 0.0000 -1.0000
usemtl Material
s off
f 10/1/1 11/2/1 7/3/1 3/4/1
f 15/5/2 3/4/2 7/6/2 14/7/2
f 25/8/3 23/9/3 5/10/3 16/11/3
f 9/12/4 12/13/4 4/14/4 8/15/4
f 17/16/5 10/1/5 3/4/5 15/5/5
f 16/11/6 5/10/6 1/17/6 13/18/6
f 20/19/4 19/20/4 12/13/4 9/12/4
f 14/21/3 7/22/3 11/23/3 18/24/3
f 11/2/6 10/1/6 32/25/6 33/26/6
f 8/27/3 14/21/3 18/24/3 9/28/3
f 19/20/5 21/29/5 17/16/5 12/13/5
f 6/30/6 16/11/6 13/18/6 2/31/6
f 12/13/5 17/16/5 15/5/5 4/14/5
f 26/32/3 25/8/3 16/11/3 6/30/3
f 4/14/2 15/5/2 14/7/2 8/33/2
f 9/28/3 18/24/3 22/34/3 20/35/3
f 24/36/5 28/37/5 21/29/5 19/20/5
f 27/38/2 23/39/2 36/40/2 35/41/2
f 26/42/4 24/36/4 19/20/4 20/19/4
f 13/18/5 1/17/5 27/38/5 28/37/5
f 6/43/4 2/31/4 24/36/4 26/42/4
f 1/17/1 5/44/1 23/39/1 27/38/1
f 2/31/5 13/18/5 28/37/5 24/36/5
f 20/35/3 22/34/3 25/8/3 26/32/3
f 27/38/2 23/39/2 29/45/2 30/46/2
f 31/47/1 34/48/1 33/26/1 32/25/1
f 35/41/1 36/40/1 34/48/1 31/47/1
